<svg preserveAspectRatio="none" overflow="visible" style="display: block;" width="2285.64" height="1835.69" viewBox="0 0 2285.64 1835.69" fill="none" xmlns="http://www.w3.org/2000/svg">
<g id="Undertone" opacity="0.55" filter="url(#filter0_f_0_19)">
<ellipse id="Ellipse" opacity="0.17446" cx="1419.27" cy="1149.25" rx="358.498" ry="306.525" transform="rotate(-32.265 1419.27 1149.25)" fill="#EDE5D5"/>
<ellipse id="Ellipse_2" opacity="0.0760482" cx="1148.63" cy="1250.54" rx="144.498" ry="342.854" transform="rotate(2.02378 1148.63 1250.54)" fill="#EDE5D5"/>
<ellipse id="Ellipse_3" opacity="0.0906898" cx="1120.92" cy="1207.37" rx="385.855" ry="198.479" transform="rotate(36.1678 1120.92 1207.37)" fill="#EDE5D5"/>
<ellipse id="Ellipse_4" opacity="0.0752634" cx="561.414" cy="1262.5" rx="291.963" ry="328.128" transform="rotate(-38.3281 561.414 1262.5)" fill="#EDE5D5"/>
<ellipse id="Ellipse_5" opacity="0.104294" cx="300.541" cy="1050.07" rx="188.058" ry="135.8" transform="rotate(28.8198 300.541 1050.07)" fill="#877B65"/>
<ellipse id="Ellipse_6" opacity="0.0768724" cx="1539.37" cy="1272.06" rx="145.215" ry="269.028" transform="rotate(1.4947 1539.37 1272.06)" fill="#EDE5D5"/>
<ellipse id="Ellipse_7" opacity="0.116155" cx="1148.56" cy="1025.3" rx="323.411" ry="318.493" transform="rotate(27.5947 1148.56 1025.3)" fill="#877B65"/>
<ellipse id="Ellipse_8" opacity="0.177195" cx="427.687" cy="1093" rx="187.719" ry="281.263" transform="rotate(21.0815 427.687 1093)" fill="#EDE5D5"/>
<ellipse id="Ellipse_9" opacity="0.131763" cx="1868.03" cy="896.813" rx="302.946" ry="259.835" transform="rotate(-27.4155 1868.03 896.813)" fill="#EDE5D5"/>
<ellipse id="Ellipse_10" opacity="0.0717468" cx="460.349" cy="764.252" rx="193.87" ry="181.871" transform="rotate(23.9177 460.349 764.252)" fill="#EDE5D5"/>
<ellipse id="Ellipse_11" opacity="0.112401" cx="1583.49" cy="1221.62" rx="299.118" ry="218.65" transform="rotate(13.6156 1583.49 1221.62)" fill="#EDE5D5"/>
<ellipse id="Ellipse_12" opacity="0.115878" cx="947.738" cy="654.155" rx="339.32" ry="254.574" transform="rotate(31.8651 947.738 654.155)" fill="#877B65"/>
<ellipse id="Ellipse_13" opacity="0.0948428" cx="1494.18" cy="510.582" rx="290.902" ry="255.362" transform="rotate(-34.2745 1494.18 510.582)" fill="#877B65"/>
<ellipse id="Ellipse_14" opacity="0.107769" cx="753.368" cy="1165.76" rx="195.895" ry="140.936" transform="rotate(13.8951 753.368 1165.76)" fill="#877B65"/>
<ellipse id="Ellipse_15" opacity="0.0661478" cx="908.3" cy="361.173" rx="353.138" ry="161.754" transform="rotate(-33.7752 908.3 361.173)" fill="#877B65"/>
<ellipse id="Ellipse_16" opacity="0.125317" cx="1713.43" cy="1472.08" rx="408.365" ry="178.207" transform="rotate(26.0488 1713.43 1472.08)" fill="#877B65"/>
<ellipse id="Ellipse_17" opacity="0.169178" cx="1308.85" cy="505.738" rx="386.954" ry="188.11" transform="rotate(-21.9829 1308.85 505.738)" fill="#877B65"/>
<ellipse id="Ellipse_18" opacity="0.169809" cx="873.322" cy="1246.62" rx="230.46" ry="307.062" transform="rotate(-3.7309 873.322 1246.62)" fill="#EDE5D5"/>
<ellipse id="Ellipse_19" opacity="0.0825168" cx="1170.77" cy="1443.25" rx="247.92" ry="206.744" transform="rotate(25.0131 1170.77 1443.25)" fill="#877B65"/>
<ellipse id="Ellipse_20" opacity="0.115947" cx="749.264" cy="1175.54" rx="231.446" ry="327.982" transform="rotate(-37.3803 749.264 1175.54)" fill="#EDE5D5"/>
<ellipse id="Ellipse_21" opacity="0.0631411" cx="930.085" cy="1121.81" rx="169.102" ry="196.794" transform="rotate(-44.8459 930.085 1121.81)" fill="#EDE5D5"/>
<ellipse id="Ellipse_22" opacity="0.127304" cx="830.824" cy="1067.97" rx="390.217" ry="348.828" transform="rotate(18.3608 830.824 1067.97)" fill="#877B65"/>
<ellipse id="Ellipse_23" opacity="0.138906" cx="905.479" cy="610.4" rx="215.456" ry="120.824" transform="rotate(14.1257 905.479 610.4)" fill="#877B65"/>
<ellipse id="Ellipse_24" opacity="0.156083" cx="866.553" cy="689.208" rx="265.285" ry="266.396" transform="rotate(-30.7474 866.553 689.208)" fill="#877B65"/>
<ellipse id="Ellipse_25" opacity="0.168166" cx="617.782" cy="1104.88" rx="294.043" ry="252.224" transform="rotate(-37.3218 617.782 1104.88)" fill="#EDE5D5"/>
<ellipse id="Ellipse_26" opacity="0.153657" cx="1266.94" cy="722.488" rx="152.19" ry="140.529" transform="rotate(29.1921 1266.94 722.488)" fill="#877B65"/>
</g>
<defs>
<filter id="filter0_f_0_19" x="-3.8147e-06" y="0" width="2285.64" height="1835.69" filterUnits="userSpaceOnUse" color-interpolation-filters="sRGB">
<feFlood flood-opacity="0" result="BackgroundImageFix"/>
<feBlend mode="normal" in="SourceGraphic" in2="BackgroundImageFix" result="shape"/>
<feGaussianBlur stdDeviation="61.6" result="effect1_foregroundBlur_0_19"/>
</filter>
</defs>
</svg>
